<svg xmlns:xlink="http://www.w3.org/1999/xlink" width="8.656ex" height="2.843ex" style="font-size: 15px; vertical-align: -0.838ex;" viewBox="0 -863.1 3726.7 1223.9" role="img" focusable="false" xmlns="http://www.w3.org/2000/svg">
<defs>
<path stroke-width="1" id="E1-MJMAIN-22C6" d="M210 282Q210 284 225 381T241 480Q241 484 245 484Q249 486 251 486Q258 486 260 477T272 406Q275 390 276 380Q290 286 290 282L388 299Q484 314 487 314H488Q497 314 497 302Q497 297 434 266Q416 257 404 251L315 206L361 118Q372 98 383 75T401 40L407 28Q407 16 395 16Q394 16 392 16L390 17L250 159L110 17L108 16Q106 16 105 16Q93 16 93 28L99 40Q105 52 116 75T139 118L185 206L96 251Q6 296 4 300Q3 301 3 302Q3 314 12 314H13Q16 314 112 299L210 282Z"></path>
<path stroke-width="1" id="E1-MJMAIN-2208" d="M84 250Q84 372 166 450T360 539Q361 539 377 539T419 540T469 540H568Q583 532 583 520Q583 511 570 501L466 500Q355 499 329 494Q280 482 242 458T183 409T147 354T129 306T124 272V270H568Q583 262 583 250T568 230H124V228Q124 207 134 177T167 112T231 48T328 7Q355 1 466 0H570Q583 -10 583 -20Q583 -32 568 -40H471Q464 -40 446 -40T417 -41Q262 -41 172 45Q84 127 84 250Z"></path>
<path stroke-width="1" id="E1-MJMAIN-5B" d="M118 -250V750H255V710H158V-210H255V-250H118Z"></path>
<path stroke-width="1" id="E1-MJMAIN-32" d="M109 429Q82 429 66 447T50 491Q50 562 103 614T235 666Q326 666 387 610T449 465Q449 422 429 383T381 315T301 241Q265 210 201 149L142 93L218 92Q375 92 385 97Q392 99 409 186V189H449V186Q448 183 436 95T421 3V0H50V19V31Q50 38 56 46T86 81Q115 113 136 137Q145 147 170 174T204 211T233 244T261 278T284 308T305 340T320 369T333 401T340 431T343 464Q343 527 309 573T212 619Q179 619 154 602T119 569T109 550Q109 549 114 549Q132 549 151 535T170 489Q170 464 154 447T109 429Z"></path>
<path stroke-width="1" id="E1-MJMAIN-2C" d="M78 35T78 60T94 103T137 121Q165 121 187 96T210 8Q210 -27 201 -60T180 -117T154 -158T130 -185T117 -194Q113 -194 104 -185T95 -172Q95 -168 106 -156T131 -126T157 -76T173 -3V9L172 8Q170 7 167 6T161 3T152 1T140 0Q113 0 96 17Z"></path>
<path stroke-width="1" id="E1-MJMAIN-34" d="M462 0Q444 3 333 3Q217 3 199 0H190V46H221Q241 46 248 46T265 48T279 53T286 61Q287 63 287 115V165H28V211L179 442Q332 674 334 675Q336 677 355 677H373L379 671V211H471V165H379V114Q379 73 379 66T385 54Q393 47 442 46H471V0H462ZM293 211V545L74 212L183 211H293Z"></path>
<path stroke-width="1" id="E1-MJMAIN-5D" d="M22 710V750H159V-250H22V-210H119V710H22Z"></path>
</defs>
<g stroke="currentColor" fill="currentColor" stroke-width="0" transform="matrix(1 0 0 -1 0 0)">
 <use xlink:href="#E1-MJMAIN-22C6" x="0" y="0"></use>
 <use xlink:href="#E1-MJMAIN-2208" x="778" y="0"></use>
 <use xlink:href="#E1-MJMAIN-5B" x="1723" y="0"></use>
 <use xlink:href="#E1-MJMAIN-32" x="2002" y="0"></use>
 <use xlink:href="#E1-MJMAIN-2C" x="2502" y="0"></use>
 <use xlink:href="#E1-MJMAIN-34" x="2947" y="0"></use>
 <use xlink:href="#E1-MJMAIN-5D" x="3448" y="0"></use>
</g>
</svg>