<svg xmlns:xlink="http://www.w3.org/1999/xlink" width="2.286ex" height="3.676ex" style="font-size: 15px; vertical-align: -2.338ex;" viewBox="0 -576.1 984.2 1582.7" role="img" focusable="false" xmlns="http://www.w3.org/2000/svg">
<defs>
<path stroke-width="1" id="E1-MJMATHI-3B3" d="M31 249Q11 249 11 258Q11 275 26 304T66 365T129 418T206 441Q233 441 239 440Q287 429 318 386T371 255Q385 195 385 170Q385 166 386 166L398 193Q418 244 443 300T486 391T508 430Q510 431 524 431H537Q543 425 543 422Q543 418 522 378T463 251T391 71Q385 55 378 6T357 -100Q341 -165 330 -190T303 -216Q286 -216 286 -188Q286 -138 340 32L346 51L347 69Q348 79 348 100Q348 257 291 317Q251 355 196 355Q148 355 108 329T51 260Q49 251 47 251Q45 249 31 249Z"></path>
<path stroke-width="1" id="E1-MJMAIN-2194" d="M263 479Q267 501 271 506T288 511Q308 511 308 500Q308 493 303 475Q293 438 278 406T246 352T215 315T185 287T165 270H835Q729 349 696 475Q691 493 691 500Q691 511 711 511Q720 511 723 510T729 506T732 497T735 481T743 456Q765 389 816 336T935 261Q944 258 944 250Q944 244 939 241T915 231T877 212Q836 186 806 152T761 85T740 35T732 4Q730 -6 727 -8T711 -11Q691 -11 691 0Q691 7 696 25Q728 151 835 230H165Q167 228 182 216T211 189T244 152T277 96T303 25Q308 7 308 0Q308 -11 288 -11Q281 -11 278 -11T272 -7T267 2T263 21Q245 94 195 151T73 236Q58 242 55 247Q55 254 59 257T73 264Q144 292 194 349T263 479Z"></path>
</defs>
<g stroke="currentColor" fill="currentColor" stroke-width="0" transform="matrix(1 0 0 -1 0 0)">
 <use xlink:href="#E1-MJMATHI-3B3" x="228" y="0"></use>
 <use xlink:href="#E1-MJMAIN-2194" x="-17" y="-909"></use>
</g>
</svg>